<?xml version="1.0" encoding="UTF-8" standalone="no"?>
<!-- Created with Inkscape (http://www.inkscape.org/) -->

<svg
   xmlns:osb="http://www.openswatchbook.org/uri/2009/osb"
   xmlns:dc="http://purl.org/dc/elements/1.1/"
   xmlns:cc="http://creativecommons.org/ns#"
   xmlns:rdf="http://www.w3.org/1999/02/22-rdf-syntax-ns#"
   xmlns:svg="http://www.w3.org/2000/svg"
   xmlns="http://www.w3.org/2000/svg"
   xmlns:sodipodi="http://sodipodi.sourceforge.net/DTD/sodipodi-0.dtd"
   xmlns:inkscape="http://www.inkscape.org/namespaces/inkscape"
   width="5.3566666mm"
   height="5.4511609mm"
   viewBox="0 0 5.3566666 5.4511609"
   version="1.1"
   id="svg8"
   inkscape:version="0.92.2 (5c3e80d, 2017-08-06)">
  <defs
     id="defs2">
    <linearGradient
       id="linearGradient3772"
       osb:paint="solid">
      <stop
         style="stop-color:#86bbc1;stop-opacity:1;"
         offset="0"
         id="stop3770" />
    </linearGradient>
    <linearGradient
       id="linearGradient3291"
       osb:paint="solid">
      <stop
         style="stop-color:#7dadb2;stop-opacity:1;"
         offset="0"
         id="stop3289" />
    </linearGradient>
    <linearGradient
       id="linearGradient3279"
       osb:paint="solid">
      <stop
         style="stop-color:#7dadb2;stop-opacity:1;"
         offset="0"
         id="stop3277" />
    </linearGradient>
    <linearGradient
       id="linearGradient2366"
       osb:paint="solid">
      <stop
         style="stop-color:#7dadb2;stop-opacity:1;"
         offset="0"
         id="stop2364" />
    </linearGradient>
    <linearGradient
       id="linearGradient2344"
       osb:paint="solid">
      <stop
         style="stop-color:#7dadb2;stop-opacity:1;"
         offset="0"
         id="stop2342" />
    </linearGradient>
    <filter
       inkscape:collect="always"
       style="color-interpolation-filters:sRGB"
       id="filter3812"
       x="-0.010117697"
       width="1.0202354"
       y="-0.014742752"
       height="1.0294855">
      <feGaussianBlur
         inkscape:collect="always"
         stdDeviation="0.03044495"
         id="feGaussianBlur3814" />
    </filter>
  </defs>
  <sodipodi:namedview
     id="base"
     pagecolor="#ffffff"
     bordercolor="#666666"
     borderopacity="1.0"
     inkscape:pageopacity="0.0"
     inkscape:pageshadow="2"
     inkscape:zoom="22.4"
     inkscape:cx="46.539662"
     inkscape:cy="9.8573446"
     inkscape:document-units="mm"
     inkscape:current-layer="g3707"
     showgrid="false"
     inkscape:showpageshadow="false"
     fit-margin-top="0"
     fit-margin-left="0"
     fit-margin-right="0"
     fit-margin-bottom="0"
     inkscape:window-width="1920"
     inkscape:window-height="1017"
     inkscape:window-x="-8"
     inkscape:window-y="-8"
     inkscape:window-maximized="1"
     showborder="false"
     showguides="false" />
  <metadata
     id="metadata5">
    <rdf:RDF>
      <cc:Work
         rdf:about="">
        <dc:format>image/svg+xml</dc:format>
        <dc:type
           rdf:resource="http://purl.org/dc/dcmitype/StillImage" />
        <dc:title></dc:title>
      </cc:Work>
    </rdf:RDF>
  </metadata>
  <g
     inkscape:label="Layer 1"
     inkscape:groupmode="layer"
     id="layer1"
     transform="translate(-206.93472,-251.6478)">
    <g
       id="g3718"
       transform="translate(1.937128,-0.12992931)">
      <g
         id="g3707">
        <path
           style="fill:#86bbc1;fill-opacity:1;filter:url(#filter3812)"
           d="m 216.20927,256.52543 v 0 c 0.49583,0.12914 0.96448,0.38058 1.50009,0.33072 0.52855,-0.027 0.71443,-0.2386 0.96856,-0.41341 0.007,-0.0767 0.0894,-0.10313 -0.0236,-0.25986 l -0.54334,-0.12993 0.43703,-0.15355 c 0.0842,-0.12044 -0.0308,-0.15542 -0.0674,-0.19531 -0.22827,0.0299 -0.40108,-0.0758 -0.6024,-0.0591 l -0.0271,-0.19447 -0.3071,-0.14175 c -0.0752,-0.0495 -0.004,-0.15736 0.0236,-0.24804 h 0.73233 l -0.82682,-0.28348 c -0.11791,-0.18016 -0.15842,-0.2984 -0.16537,-0.38979 0.23589,-0.005 0.60154,0.0293 0.63783,-0.0354 -0.18791,-0.13404 -0.22214,-0.29092 -0.54166,-0.40303 l -0.16704,-0.60097 c 0.0174,-0.0872 0.0691,-0.10595 0.10631,-0.15355 0.65469,0.66685 1.47691,1.03592 2.26785,1.37016 0.0706,-0.005 0.11408,0.0574 0.22443,-0.0472 0.0238,-0.27951 -10e-4,-0.66831 0.16413,-0.75679 0.37141,-0.56335 0.47456,-0.58021 0.69462,-0.80295 l 0.62949,-0.0585 c 0.0692,0.22414 0.0921,0.33258 0.11811,0.44884 0.24279,0.0979 0.30761,0.11946 0.4016,0.15356 l 0.11812,0.22442 0.21261,0.12993 0.0354,0.17717 0.2008,0.10631 0.0118,0.37798 0.0827,0.0591 0.51696,0.11003 0.40925,0.0721 -0.73722,0.17229 0.67327,0.36616 -0.93313,0.0591 -0.0709,0.42522 c -0.18933,0.53 -0.4524,0.82258 -0.74963,1.1152 -0.36096,0.44476 -0.86091,0.58115 -1.28199,0.84555 -0.56346,0.13868 -1.14849,0.0699 -1.66427,0.11323 l -0.91762,-0.15642 c -0.67492,-0.29923 -0.82777,-0.53164 -1.23331,-0.83087 z"
           id="path3742"
           inkscape:connector-curvature="0"
           sodipodi:nodetypes="cccccccccccccccccccccccccccccccccccccccccccc" />
      </g>
    </g>
  </g>
</svg>
